# Blender v2.80 (sub 75) OBJ File: 'low_poly_tree.blend'
# www.blender.org
mtllib low_poly_tree.mtl
o wood_Cube.004
v -1.000000 -0.001053 1.000000
v -0.880870 1.957003 0.879871
v -1.000000 -0.001053 -1.000000
v -0.880870 2.040890 -0.879871
v 1.000000 -0.001053 1.000000
v 0.880870 1.957003 0.879871
v 1.000000 -0.001053 -1.000000
v 0.880870 2.040890 -0.879871
v -0.845364 3.465553 0.985655
v -0.845364 3.782696 -0.675062
v 0.845364 3.782696 -0.675062
v 0.845364 3.465553 0.985655
v -0.808046 5.105834 1.416029
v -0.808046 5.311114 -0.186973
v 0.808046 5.311114 -0.186973
v 0.808046 5.105834 1.416029
v -0.780045 6.993500 1.341020
v -0.780045 6.775843 -0.203811
v 0.780045 6.775843 -0.203811
v 0.780045 6.993500 1.341020
v -0.694972 8.473843 0.876184
v -0.694972 8.142740 -0.473747
v 0.694972 8.142740 -0.473747
v 0.694972 8.473843 0.876184
v -0.606214 9.319011 0.577366
v -0.606214 9.272271 -0.634160
v 0.606214 9.272271 -0.634160
v 0.606214 9.319011 0.577366
v -0.522708 10.571551 0.694988
v -0.522708 10.729198 -0.338472
v 0.522708 10.729198 -0.338472
v 0.522708 10.571551 0.694988
v -1.247947 -0.001053 0.000000
v -1.099279 1.998947 0.000000
v 1.247947 -0.001053 0.000000
v 1.099279 1.998947 0.000000
v -1.054970 3.624124 0.155297
v 1.054970 3.624124 0.155297
v -1.008399 5.208475 0.614528
v 1.008399 5.208475 0.614528
v -0.973454 6.884672 0.568605
v 0.973454 6.884672 0.568605
v -0.867288 8.308291 0.201218
v 0.867288 8.308291 0.201218
v -0.756523 9.295641 -0.028397
v 0.756523 9.295641 -0.028397
v -0.652311 10.650375 0.178258
v 0.652311 10.650375 0.178258
v 0.000000 -0.001053 -1.345536
v 0.000000 2.040890 -1.190748
v 0.000000 -0.001053 1.231499
v 0.000000 1.957003 1.076710
v 0.000000 3.782696 -0.926848
v 0.000000 3.465553 1.213015
v 0.000000 5.311114 -0.297936
v 0.000000 5.105834 1.767559
v 0.000000 6.775843 -0.319633
v 0.000000 6.993500 1.670909
v 0.000000 8.142740 -0.667450
v 0.000000 8.473843 1.071960
v 0.000000 9.272271 -0.874145
v 0.000000 9.319011 0.686927
v 0.000000 10.729198 -0.493146
v 0.000000 10.571551 0.838485
v 0.000000 10.650375 0.172670
v 0.000000 -0.001053 -0.057019
vt 0.375000 0.125000
vt 0.625000 0.125000
vt 0.625000 0.250000
vt 0.375000 0.250000
vt 0.375000 0.375000
vt 0.625000 0.375000
vt 0.625000 0.500000
vt 0.375000 0.500000
vt 0.375000 0.625000
vt 0.625000 0.625000
vt 0.625000 0.750000
vt 0.375000 0.750000
vt 0.375000 0.875000
vt 0.625000 0.875000
vt 0.625000 1.000000
vt 0.375000 1.000000
vt 0.250000 0.625000
vt 0.250000 0.750000
vt 0.625000 0.250000
vt 0.625000 0.375000
vt 0.625000 0.250000
vt 0.625000 0.375000
vt 0.625000 0.000000
vt 0.625000 0.000000
vt 0.625000 0.125000
vt 0.625000 0.750000
vt 0.625000 0.875000
vt 0.625000 0.500000
vt 0.625000 0.625000
vt 0.625000 0.250000
vt 0.625000 0.375000
vt 0.625000 0.500000
vt 0.625000 0.625000
vt 0.625000 0.750000
vt 0.625000 0.875000
vt 0.625000 0.000000
vt 0.625000 0.125000
vt 0.625000 0.250000
vt 0.625000 0.375000
vt 0.625000 0.500000
vt 0.625000 0.625000
vt 0.625000 0.750000
vt 0.625000 0.875000
vt 0.625000 0.000000
vt 0.625000 0.125000
vt 0.625000 0.250000
vt 0.625000 0.375000
vt 0.625000 0.500000
vt 0.625000 0.625000
vt 0.625000 0.750000
vt 0.625000 0.875000
vt 0.625000 0.000000
vt 0.625000 0.125000
vt 0.625000 0.250000
vt 0.625000 0.375000
vt 0.625000 0.500000
vt 0.625000 0.625000
vt 0.625000 0.750000
vt 0.625000 0.875000
vt 0.625000 0.000000
vt 0.625000 0.125000
vt 0.750000 0.625000
vt 0.875000 0.625000
vt 0.875000 0.750000
vt 0.750000 0.750000
vt 0.625000 0.500000
vt 0.625000 0.625000
vt 0.625000 0.750000
vt 0.625000 0.875000
vt 0.625000 0.000000
vt 0.625000 0.125000
vt 0.750000 0.500000
vt 0.875000 0.500000
vt 0.250000 0.500000
vt 0.375000 0.000000
vt 0.125000 0.500000
vt 0.125000 0.625000
vt 0.625000 1.000000
vt 0.625000 1.000000
vt 0.625000 1.000000
vt 0.625000 1.000000
vt 0.625000 1.000000
vt 0.625000 1.000000
vt 0.125000 0.750000
vn -0.9685 0.0713 -0.2387
vn 0.3286 0.0730 -0.9416
vn 0.9676 0.0728 0.2417
vn -0.2214 0.0750 0.9723
vn 0.0000 -1.0000 0.0000
vn -0.3073 0.1300 -0.9427
vn -0.2017 0.3383 -0.9192
vn -0.9699 0.0044 0.2433
vn 0.2380 -0.0749 0.9684
vn 0.9703 0.0484 -0.2372
vn -0.1414 -0.0117 -0.9899
vn 0.9689 0.0955 -0.2281
vn 0.3182 -0.2693 0.9090
vn -0.9706 -0.0402 0.2374
vn -0.2008 -0.2100 -0.9569
vn 0.9700 0.0146 -0.2427
vn 0.3939 0.0447 0.9181
vn -0.9698 0.0254 0.2425
vn -0.3131 -0.1403 -0.9393
vn 0.9690 0.0101 -0.2468
vn 0.3170 0.3288 0.8896
vn -0.9671 0.1268 0.2203
vn -0.3217 0.2229 -0.9202
vn 0.9671 0.0450 -0.2503
vn 0.2117 0.3761 0.9021
vn -0.9616 0.1674 0.2175
vn -0.0157 0.9909 0.1338
vn 0.9660 0.1066 -0.2356
vn 0.2177 -0.0971 0.9712
vn -0.9691 0.0395 0.2436
vn -0.9660 0.1066 -0.2356
vn 0.9691 0.0395 0.2436
vn 0.0183 0.9908 0.1341
vn -0.9671 0.0450 -0.2503
vn 0.9616 0.1674 0.2175
vn -0.9690 0.0101 -0.2468
vn 0.9671 0.1268 0.2203
vn -0.9700 0.0146 -0.2427
vn 0.9698 0.0254 0.2425
vn -0.9689 0.0955 -0.2281
vn 0.9706 -0.0402 0.2374
vn 0.9699 0.0044 0.2433
vn -0.9703 0.0484 -0.2372
vn 0.9685 0.0713 -0.2387
vn -0.9676 0.0728 0.2417
vn -0.0183 0.9908 0.1341
vn -0.2177 -0.0971 0.9712
vn 0.0157 0.9909 0.1338
vn -0.2117 0.3761 0.9021
vn 0.3217 0.2229 -0.9202
vn -0.3170 0.3288 0.8896
vn 0.3131 -0.1403 -0.9393
vn -0.3939 0.0447 0.9181
vn 0.2008 -0.2100 -0.9569
vn -0.3182 -0.2693 0.9090
vn 0.1414 -0.0117 -0.9899
vn -0.2380 -0.0749 0.9684
vn 0.2017 0.3383 -0.9192
vn 0.3073 0.1300 -0.9427
vn 0.2214 0.0750 0.9723
vn -0.3286 0.0730 -0.9416
usemtl Material.002
s off
f 33/1/1 34/2/1 4/3/1 3/4/1
f 49/5/2 50/6/2 8/7/2 7/8/2
f 35/9/3 36/10/3 6/11/3 5/12/3
f 51/13/4 52/14/4 2/15/4 1/16/4
f 66/17/5 35/9/5 5/12/5 51/18/5
f 50/6/6 4/3/6 10/19/6 53/20/6
f 53/20/7 10/19/7 14/21/7 55/22/7
f 34/2/8 2/23/8 9/24/8 37/25/8
f 52/14/9 6/11/9 12/26/9 54/27/9
f 36/10/10 8/7/10 11/28/10 38/29/10
f 55/22/11 14/21/11 18/30/11 57/31/11
f 38/29/12 11/28/12 15/32/12 40/33/12
f 54/27/13 12/26/13 16/34/13 56/35/13
f 37/25/14 9/24/14 13/36/14 39/37/14
f 57/31/15 18/30/15 22/38/15 59/39/15
f 40/33/16 15/32/16 19/40/16 42/41/16
f 56/35/17 16/34/17 20/42/17 58/43/17
f 39/37/18 13/36/18 17/44/18 41/45/18
f 59/39/19 22/38/19 26/46/19 61/47/19
f 42/41/20 19/40/20 23/48/20 44/49/20
f 58/43/21 20/42/21 24/50/21 60/51/21
f 41/45/22 17/44/22 21/52/22 43/53/22
f 61/47/23 26/46/23 30/54/23 63/55/23
f 44/49/24 23/48/24 27/56/24 46/57/24
f 60/51/25 24/50/25 28/58/25 62/59/25
f 43/53/26 21/52/26 25/60/26 45/61/26
f 65/62/27 47/63/27 29/64/27 64/65/27
f 46/57/28 27/56/28 31/66/28 48/67/28
f 62/59/29 28/58/29 32/68/29 64/69/29
f 45/61/30 25/60/30 29/70/30 47/71/30
f 26/46/31 45/61/31 47/71/31 30/54/31
f 28/58/32 46/57/32 48/67/32 32/68/32
f 63/72/33 30/73/33 47/63/33 65/62/33
f 22/38/34 43/53/34 45/61/34 26/46/34
f 24/50/35 44/49/35 46/57/35 28/58/35
f 18/30/36 41/45/36 43/53/36 22/38/36
f 20/42/37 42/41/37 44/49/37 24/50/37
f 14/21/38 39/37/38 41/45/38 18/30/38
f 16/34/39 40/33/39 42/41/39 20/42/39
f 10/19/40 37/25/40 39/37/40 14/21/40
f 12/26/41 38/29/41 40/33/41 16/34/41
f 6/11/42 36/10/42 38/29/42 12/26/42
f 4/3/43 34/2/43 37/25/43 10/19/43
f 49/74/5 7/8/5 35/9/5 66/17/5
f 7/8/44 8/7/44 36/10/44 35/9/44
f 1/75/45 2/23/45 34/2/45 33/1/45
f 3/76/5 49/74/5 66/17/5 33/77/5
f 31/66/46 63/72/46 65/62/46 48/67/46
f 25/78/47 62/59/47 64/69/47 29/79/47
f 48/67/48 65/62/48 64/65/48 32/68/48
f 21/80/49 60/51/49 62/59/49 25/78/49
f 27/56/50 61/47/50 63/55/50 31/66/50
f 17/81/51 58/43/51 60/51/51 21/80/51
f 23/48/52 59/39/52 61/47/52 27/56/52
f 13/82/53 56/35/53 58/43/53 17/81/53
f 19/40/54 57/31/54 59/39/54 23/48/54
f 9/83/55 54/27/55 56/35/55 13/82/55
f 15/32/56 55/22/56 57/31/56 19/40/56
f 2/15/57 52/14/57 54/27/57 9/83/57
f 11/28/58 53/20/58 55/22/58 15/32/58
f 8/7/59 50/6/59 53/20/59 11/28/59
f 33/77/5 66/17/5 51/18/5 1/84/5
f 5/12/60 6/11/60 52/14/60 51/13/60
f 3/4/61 4/3/61 50/6/61 49/5/61
o leafs_1_Sphere
v 0.002338 12.198214 -10.345750
v -0.186308 16.552715 -9.365303
v -0.207891 9.964229 -8.347056
v 2.842356 15.043885 -7.972154
v 0.021255 8.839506 -5.349450
v 3.570277 12.597414 -7.087647
v 2.189250 17.492191 -5.239510
v 1.372471 17.875395 -1.561659
v 2.905672 10.144081 -4.778537
v 4.331903 14.306046 -2.851326
v 2.619895 11.228957 0.365099
v 2.128947 14.535698 1.814222
v -0.578577 9.007116 -0.845697
v -1.686609 18.179939 -1.041126
v -1.337774 16.553911 2.111144
v -1.027937 11.314517 2.747464
v -1.229767 14.406872 3.218677
v -2.159401 18.398478 -5.422935
v -4.729306 13.156180 2.038121
v -4.911901 10.454529 -0.151123
v -5.763816 16.009056 -0.428874
v -3.133183 8.790953 -3.022555
v -4.784424 17.696083 -3.096476
v -6.897104 12.656568 -2.684578
v -6.765422 14.422235 -5.484155
v -5.892155 12.342117 -7.628915
v -4.547311 16.076920 -8.413343
v -5.469310 10.355990 -5.237429
v -3.240748 9.706350 -7.626585
v -3.179361 13.780637 -10.501630
vt 0.817543 0.900933
vt 0.561803 0.747261
vt 0.714382 0.696661
vt 0.611779 0.592210
vt 0.580315 0.440029
vt 0.712047 0.418279
vt 0.479018 0.543579
vt 0.533458 0.279081
vt 0.705365 0.245438
vt 0.388783 0.353106
vt 0.305041 0.143060
vt 0.622384 0.123451
vt 0.421875 0.000000
vt 0.416425 0.807014
vt 0.356437 0.559284
vt 0.328125 1.000000
vt 0.224219 0.876931
vt 0.259293 0.361359
vt 0.250272 0.700632
vt 0.256296 0.551971
vt 0.149962 0.468717
vt 0.108670 0.300160
vt 0.065063 0.118673
vt 0.091398 0.642762
vt 0.028110 0.438625
vt 0.000000 0.538521
vt 0.000000 0.281787
vt 1.000000 0.625000
vt 0.976515 0.793939
vt 0.957628 0.550226
vt 0.900510 0.427455
vt 0.991820 0.407460
vt 0.864685 0.661391
vt 0.952264 0.282500
vt 0.840904 0.232052
vt 0.938333 0.118992
vt 0.798141 0.517031
vt 0.045367 0.794047
vt 0.044152 0.961278
vn 0.2060 0.9218 -0.3285
vn 0.6768 -0.0638 -0.7334
vn 0.8748 0.4457 -0.1902
vn 0.9516 -0.3036 -0.0486
vn 0.5962 -0.6007 -0.5326
vn 0.9179 -0.3748 0.1300
vn 0.3962 -0.9140 0.0868
vn 0.0474 -0.9979 0.0435
vn 0.5049 -0.8385 0.2049
vn 0.7803 0.5232 0.3427
vn 0.1054 0.9937 0.0382
vn 0.5209 -0.2766 0.8076
vn 0.3307 0.4457 0.8318
vn -0.4181 0.3998 0.8157
vn -0.2402 -0.8971 0.3709
vn -0.9096 0.0286 0.4145
vn -0.9618 0.2496 0.1122
vn -0.7928 -0.6014 0.0985
vn -0.8585 0.5128 0.0091
vn -0.9594 -0.2159 -0.1813
vn -0.4693 0.8387 -0.2763
vn -0.4356 -0.8848 -0.1657
vn -0.6392 -0.6434 -0.4213
vn -0.7534 0.1362 -0.6433
vn -0.1256 -0.9736 -0.1906
vn 0.1582 0.2234 -0.9618
vn 0.4934 0.2113 -0.8437
vn 0.4426 -0.8279 -0.3445
vn 0.5577 0.6800 -0.4760
vn -0.3739 0.8229 0.4279
vn 0.2060 0.9770 -0.0560
vn 0.9493 0.1927 -0.2484
vn 0.7844 0.6104 0.1106
vn 0.9019 -0.0539 0.4285
vn 0.3336 -0.7737 0.5386
vn 0.4475 0.6839 0.5763
vn 0.1626 0.8841 0.4381
vn 0.3870 -0.1142 0.9150
vn -0.1971 -0.8360 0.5122
vn -0.2629 -0.1621 0.9511
vn -0.4828 0.4660 0.7414
vn -0.4146 -0.5558 0.7205
vn -0.8590 -0.2860 0.4246
vn -0.1993 0.9774 0.0702
vn -0.6071 -0.7904 0.0818
vn -0.9084 -0.3862 -0.1601
vn -0.7541 0.6181 -0.2219
vn -0.8313 0.1896 -0.5224
vn -0.4931 -0.4966 -0.7143
vn -0.2383 -0.5575 -0.7952
vn -0.2004 0.8449 -0.4959
vn -0.0038 -0.9364 -0.3510
vn -0.2339 0.5742 -0.7846
vn -0.1213 -0.6555 -0.7454
usemtl Material.001
s off
f 84/85/62 73/86/62 68/87/62
f 70/88/63 72/89/63 67/90/63
f 73/86/64 76/91/64 70/88/64
f 72/89/65 76/91/65 75/92/65
f 72/89/66 75/92/66 69/93/66 67/90/66
f 76/91/67 77/94/67 75/92/67
f 75/92/68 79/95/68 71/96/68
f 88/97/69 71/96/69 79/95/69
f 77/94/70 79/95/70 75/92/70
f 76/91/71 74/98/71 78/99/71
f 74/98/72 84/100/72 80/101/72
f 78/99/73 82/102/73 77/94/73
f 78/99/74 81/103/74 83/104/74
f 81/103/75 85/105/75 83/104/75
f 79/95/76 86/106/76 88/107/76
f 87/108/77 90/109/77 85/105/77
f 87/108/78 91/110/78 90/109/78
f 86/106/79 90/109/79 94/111/79
f 87/112/80 89/113/80 91/114/80
f 91/114/81 92/115/81 90/116/81
f 89/113/82 84/85/82 93/117/82
f 94/118/83 95/119/83 88/120/83
f 92/115/84 95/119/84 94/118/84
f 92/115/85 93/117/85 96/121/85
f 95/119/86 71/96/86 88/120/86
f 96/121/87 68/87/87 67/90/87
f 68/87/88 70/88/88 67/90/88
f 71/96/89 69/93/89 75/92/89
f 68/87/90 73/86/90 70/88/90
f 87/108/91 81/103/91 80/101/91 89/122/91
f 84/85/92 74/98/92 73/86/92
f 70/88/93 76/91/93 72/89/93
f 76/91/94 73/86/94 74/98/94
f 76/91/95 78/99/95 77/94/95
f 77/94/96 82/102/96 79/95/96
f 78/99/97 74/98/97 81/103/97
f 81/103/98 74/98/98 80/101/98
f 78/99/99 83/104/99 82/102/99
f 79/95/100 82/102/100 86/106/100
f 82/102/101 83/104/101 85/105/101
f 81/103/102 87/108/102 85/105/102
f 86/106/103 82/102/103 85/105/103
f 86/106/104 85/105/104 90/109/104
f 80/101/105 84/123/105 89/122/105
f 88/107/106 86/106/106 94/111/106
f 90/116/107 92/115/107 94/118/107
f 91/114/108 89/113/108 93/117/108
f 92/115/109 91/114/109 93/117/109
f 92/115/110 96/121/110 95/119/110
f 96/121/111 67/90/111 95/119/111
f 93/117/112 84/85/112 68/87/112
f 95/119/113 69/93/113 71/96/113
f 96/121/114 93/117/114 68/87/114
f 95/119/115 67/90/115 69/93/115
o leafs_3_Sphere.001
v -2.063313 10.670916 -2.936010
v -2.251959 15.025418 -1.955562
v -2.273542 8.436931 -0.937316
v 0.776705 13.516587 -0.562413
v -2.044396 7.312208 2.060291
v 1.504626 11.070116 0.322093
v 0.123599 15.964894 2.170230
v -0.693180 16.348097 5.848082
v 0.840021 8.616783 2.631203
v 2.266252 12.778749 4.558414
v 0.554244 9.701659 7.774839
v 0.063296 13.008400 9.223962
v -2.644228 7.479818 6.564044
v -3.752260 16.652641 6.368615
v -3.403425 15.026613 9.520885
v -3.093588 9.787219 10.157205
v -3.295418 12.879574 10.628417
v -4.225052 16.871180 1.986805
v -6.794957 11.628882 9.447862
v -6.977552 8.927231 7.258618
v -7.829467 14.481758 6.980866
v -5.198834 7.263655 4.387185
v -6.850075 16.168785 4.313265
v -8.962755 11.129270 4.725163
v -8.831073 12.894938 1.925586
v -7.957806 10.814819 -0.219175
v -6.612962 14.549622 -1.003603
v -7.534961 8.828692 2.172311
v -5.306399 8.179052 -0.216845
v -5.245011 12.253339 -3.091889
vt 0.817543 0.900933
vt 0.561803 0.747261
vt 0.714382 0.696661
vt 0.611779 0.592210
vt 0.580315 0.440029
vt 0.712047 0.418279
vt 0.479018 0.543579
vt 0.533458 0.279081
vt 0.705365 0.245438
vt 0.388783 0.353106
vt 0.305041 0.143060
vt 0.622384 0.123451
vt 0.421875 0.000000
vt 0.416425 0.807014
vt 0.356437 0.559284
vt 0.328125 1.000000
vt 0.224219 0.876931
vt 0.259293 0.361359
vt 0.250272 0.700632
vt 0.256296 0.551971
vt 0.149962 0.468717
vt 0.108670 0.300160
vt 0.065063 0.118673
vt 0.091398 0.642762
vt 0.028110 0.438625
vt 0.000000 0.538521
vt 0.000000 0.281787
vt 1.000000 0.625000
vt 0.976515 0.793939
vt 0.957628 0.550226
vt 0.900510 0.427455
vt 0.991820 0.407460
vt 0.864685 0.661391
vt 0.952264 0.282500
vt 0.840904 0.232052
vt 0.938333 0.118992
vt 0.798141 0.517031
vt 0.045367 0.794047
vt 0.044152 0.961278
vn 0.2060 0.9218 -0.3285
vn 0.6768 -0.0638 -0.7334
vn 0.8748 0.4457 -0.1902
vn 0.9516 -0.3036 -0.0486
vn 0.5962 -0.6007 -0.5326
vn 0.9179 -0.3748 0.1300
vn 0.3962 -0.9140 0.0868
vn 0.0474 -0.9979 0.0435
vn 0.5049 -0.8385 0.2049
vn 0.7803 0.5232 0.3427
vn 0.1054 0.9937 0.0382
vn 0.5209 -0.2766 0.8076
vn 0.3307 0.4457 0.8318
vn -0.4181 0.3998 0.8157
vn -0.2402 -0.8971 0.3709
vn -0.9096 0.0286 0.4145
vn -0.9618 0.2496 0.1122
vn -0.7928 -0.6014 0.0985
vn -0.8585 0.5128 0.0091
vn -0.9594 -0.2159 -0.1813
vn -0.4693 0.8387 -0.2763
vn -0.4356 -0.8848 -0.1657
vn -0.6392 -0.6434 -0.4213
vn -0.7534 0.1362 -0.6433
vn -0.1256 -0.9736 -0.1906
vn 0.1582 0.2234 -0.9618
vn 0.4934 0.2113 -0.8437
vn 0.4426 -0.8279 -0.3445
vn 0.5577 0.6800 -0.4760
vn -0.3739 0.8229 0.4279
vn 0.2060 0.9770 -0.0560
vn 0.9493 0.1927 -0.2484
vn 0.7844 0.6104 0.1106
vn 0.9019 -0.0539 0.4285
vn 0.3336 -0.7737 0.5386
vn 0.4475 0.6839 0.5763
vn 0.1626 0.8841 0.4381
vn 0.3870 -0.1142 0.9150
vn -0.1971 -0.8360 0.5122
vn -0.2629 -0.1621 0.9511
vn -0.4828 0.4660 0.7414
vn -0.4146 -0.5558 0.7205
vn -0.8590 -0.2860 0.4246
vn -0.1993 0.9774 0.0702
vn -0.6071 -0.7904 0.0818
vn -0.9084 -0.3862 -0.1601
vn -0.7541 0.6181 -0.2219
vn -0.8313 0.1896 -0.5224
vn -0.4931 -0.4966 -0.7143
vn -0.2383 -0.5575 -0.7952
vn -0.2004 0.8449 -0.4959
vn -0.0038 -0.9364 -0.3510
vn -0.2339 0.5742 -0.7846
vn -0.1213 -0.6555 -0.7454
usemtl Material.001
s off
f 114/124/116 103/125/116 98/126/116
f 100/127/117 102/128/117 97/129/117
f 103/125/118 106/130/118 100/127/118
f 102/128/119 106/130/119 105/131/119
f 102/128/120 105/131/120 99/132/120 97/129/120
f 106/130/121 107/133/121 105/131/121
f 105/131/122 109/134/122 101/135/122
f 118/136/123 101/135/123 109/134/123
f 107/133/124 109/134/124 105/131/124
f 106/130/125 104/137/125 108/138/125
f 104/137/126 114/139/126 110/140/126
f 108/138/127 112/141/127 107/133/127
f 108/138/128 111/142/128 113/143/128
f 111/142/129 115/144/129 113/143/129
f 109/134/130 116/145/130 118/146/130
f 117/147/131 120/148/131 115/144/131
f 117/147/132 121/149/132 120/148/132
f 116/145/133 120/148/133 124/150/133
f 117/151/134 119/152/134 121/153/134
f 121/153/135 122/154/135 120/155/135
f 119/152/136 114/124/136 123/156/136
f 124/157/137 125/158/137 118/159/137
f 122/154/138 125/158/138 124/157/138
f 122/154/139 123/156/139 126/160/139
f 125/158/140 101/135/140 118/159/140
f 126/160/141 98/126/141 97/129/141
f 98/126/142 100/127/142 97/129/142
f 101/135/143 99/132/143 105/131/143
f 98/126/144 103/125/144 100/127/144
f 117/147/145 111/142/145 110/140/145 119/161/145
f 114/124/146 104/137/146 103/125/146
f 100/127/147 106/130/147 102/128/147
f 106/130/148 103/125/148 104/137/148
f 106/130/149 108/138/149 107/133/149
f 107/133/150 112/141/150 109/134/150
f 108/138/151 104/137/151 111/142/151
f 111/142/152 104/137/152 110/140/152
f 108/138/153 113/143/153 112/141/153
f 109/134/154 112/141/154 116/145/154
f 112/141/155 113/143/155 115/144/155
f 111/142/156 117/147/156 115/144/156
f 116/145/157 112/141/157 115/144/157
f 116/145/158 115/144/158 120/148/158
f 110/140/159 114/162/159 119/161/159
f 118/146/160 116/145/160 124/150/160
f 120/155/161 122/154/161 124/157/161
f 121/153/162 119/152/162 123/156/162
f 122/154/163 121/153/163 123/156/163
f 122/154/164 126/160/164 125/158/164
f 126/160/165 97/129/165 125/158/165
f 123/156/166 114/124/166 98/126/166
f 125/158/167 99/132/167 101/135/167
f 126/160/168 123/156/168 98/126/168
f 125/158/169 97/129/169 99/132/169
o leafs_2_Sphere.002
v 3.900012 11.673410 -2.936010
v 3.711366 16.027912 -1.955562
v 3.689783 9.439425 -0.937316
v 6.740030 14.519081 -0.562413
v 3.918929 8.314701 2.060291
v 7.467951 12.072609 0.322093
v 6.086925 16.967388 2.170230
v 5.270145 17.350590 5.848082
v 6.803347 9.619277 2.631203
v 8.229577 13.781242 4.558414
v 6.517569 10.704153 7.774839
v 6.026621 14.010894 9.223962
v 3.319097 8.482312 6.564044
v 2.211065 17.655134 6.368615
v 2.559900 16.029108 9.520885
v 2.869737 10.789713 10.157205
v 2.667907 13.882068 10.628417
v 1.738273 17.873672 1.986805
v -0.831632 12.631376 9.447862
v -1.014227 9.929725 7.258618
v -1.866142 15.484252 6.980866
v 0.764491 8.266149 4.387185
v -0.886750 17.171280 4.313265
v -2.999430 12.131763 4.725163
v -2.867748 13.897431 1.925586
v -1.994480 11.817313 -0.219175
v -0.649637 15.552116 -1.003603
v -1.571635 9.831186 2.172311
v 0.656926 9.181545 -0.216845
v 0.718313 13.255833 -3.091889
vt 0.817543 0.900933
vt 0.561803 0.747261
vt 0.714382 0.696661
vt 0.611779 0.592210
vt 0.580315 0.440029
vt 0.712047 0.418279
vt 0.479018 0.543579
vt 0.533458 0.279081
vt 0.705365 0.245438
vt 0.388783 0.353106
vt 0.305041 0.143060
vt 0.622384 0.123451
vt 0.421875 0.000000
vt 0.416425 0.807014
vt 0.356437 0.559284
vt 0.328125 1.000000
vt 0.224219 0.876931
vt 0.259293 0.361359
vt 0.250272 0.700632
vt 0.256296 0.551971
vt 0.149962 0.468717
vt 0.108670 0.300160
vt 0.065063 0.118673
vt 0.091398 0.642762
vt 0.028110 0.438625
vt 0.000000 0.538521
vt 0.000000 0.281787
vt 1.000000 0.625000
vt 0.976515 0.793939
vt 0.957628 0.550226
vt 0.900510 0.427455
vt 0.991820 0.407460
vt 0.864685 0.661391
vt 0.952264 0.282500
vt 0.840904 0.232052
vt 0.938333 0.118992
vt 0.798141 0.517031
vt 0.045367 0.794047
vt 0.044152 0.961278
vn 0.2060 0.9218 -0.3285
vn 0.6768 -0.0638 -0.7334
vn 0.8748 0.4457 -0.1902
vn 0.9516 -0.3036 -0.0486
vn 0.5962 -0.6007 -0.5326
vn 0.9179 -0.3748 0.1300
vn 0.3962 -0.9140 0.0868
vn 0.0474 -0.9979 0.0435
vn 0.5049 -0.8385 0.2049
vn 0.7803 0.5232 0.3427
vn 0.1054 0.9937 0.0382
vn 0.5209 -0.2766 0.8076
vn 0.3307 0.4457 0.8318
vn -0.4181 0.3998 0.8157
vn -0.2402 -0.8971 0.3709
vn -0.9096 0.0286 0.4145
vn -0.9618 0.2496 0.1122
vn -0.7928 -0.6014 0.0985
vn -0.8585 0.5128 0.0091
vn -0.9594 -0.2159 -0.1813
vn -0.4693 0.8387 -0.2763
vn -0.4356 -0.8848 -0.1657
vn -0.6392 -0.6434 -0.4213
vn -0.7534 0.1362 -0.6433
vn -0.1256 -0.9736 -0.1906
vn 0.1582 0.2234 -0.9618
vn 0.4934 0.2113 -0.8437
vn 0.4426 -0.8279 -0.3445
vn 0.5577 0.6800 -0.4760
vn -0.3739 0.8229 0.4279
vn 0.2060 0.9770 -0.0560
vn 0.9493 0.1927 -0.2484
vn 0.7844 0.6104 0.1106
vn 0.9019 -0.0539 0.4285
vn 0.3336 -0.7737 0.5386
vn 0.4475 0.6839 0.5763
vn 0.1626 0.8841 0.4381
vn 0.3870 -0.1142 0.9150
vn -0.1971 -0.8360 0.5122
vn -0.2629 -0.1621 0.9511
vn -0.4828 0.4660 0.7414
vn -0.4146 -0.5558 0.7205
vn -0.8590 -0.2860 0.4246
vn -0.1993 0.9774 0.0702
vn -0.6071 -0.7904 0.0818
vn -0.9084 -0.3862 -0.1601
vn -0.7541 0.6181 -0.2219
vn -0.8313 0.1896 -0.5224
vn -0.4931 -0.4966 -0.7143
vn -0.2383 -0.5575 -0.7952
vn -0.2004 0.8449 -0.4959
vn -0.0038 -0.9364 -0.3510
vn -0.2339 0.5742 -0.7846
vn -0.1213 -0.6555 -0.7454
usemtl Material.001
s off
f 144/163/170 133/164/170 128/165/170
f 130/166/171 132/167/171 127/168/171
f 133/164/172 136/169/172 130/166/172
f 132/167/173 136/169/173 135/170/173
f 132/167/174 135/170/174 129/171/174 127/168/174
f 136/169/175 137/172/175 135/170/175
f 135/170/176 139/173/176 131/174/176
f 148/175/177 131/174/177 139/173/177
f 137/172/178 139/173/178 135/170/178
f 136/169/179 134/176/179 138/177/179
f 134/176/180 144/178/180 140/179/180
f 138/177/181 142/180/181 137/172/181
f 138/177/182 141/181/182 143/182/182
f 141/181/183 145/183/183 143/182/183
f 139/173/184 146/184/184 148/185/184
f 147/186/185 150/187/185 145/183/185
f 147/186/186 151/188/186 150/187/186
f 146/184/187 150/187/187 154/189/187
f 147/190/188 149/191/188 151/192/188
f 151/192/189 152/193/189 150/194/189
f 149/191/190 144/163/190 153/195/190
f 154/196/191 155/197/191 148/198/191
f 152/193/192 155/197/192 154/196/192
f 152/193/193 153/195/193 156/199/193
f 155/197/194 131/174/194 148/198/194
f 156/199/195 128/165/195 127/168/195
f 128/165/196 130/166/196 127/168/196
f 131/174/197 129/171/197 135/170/197
f 128/165/198 133/164/198 130/166/198
f 147/186/199 141/181/199 140/179/199 149/200/199
f 144/163/200 134/176/200 133/164/200
f 130/166/201 136/169/201 132/167/201
f 136/169/202 133/164/202 134/176/202
f 136/169/203 138/177/203 137/172/203
f 137/172/204 142/180/204 139/173/204
f 138/177/205 134/176/205 141/181/205
f 141/181/206 134/176/206 140/179/206
f 138/177/207 143/182/207 142/180/207
f 139/173/208 142/180/208 146/184/208
f 142/180/209 143/182/209 145/183/209
f 141/181/210 147/186/210 145/183/210
f 146/184/211 142/180/211 145/183/211
f 146/184/212 145/183/212 150/187/212
f 140/179/213 144/201/213 149/200/213
f 148/185/214 146/184/214 154/189/214
f 150/194/215 152/193/215 154/196/215
f 151/192/216 149/191/216 153/195/216
f 152/193/217 151/192/217 153/195/217
f 152/193/218 156/199/218 155/197/218
f 156/199/219 127/168/219 155/197/219
f 153/195/220 144/163/220 128/165/220
f 155/197/221 129/171/221 131/174/221
f 156/199/222 153/195/222 128/165/222
f 155/197/223 127/168/223 129/171/223
o leafs_4_Sphere.003
v 0.913532 16.698456 -3.659219
v 0.756917 19.704660 -2.845239
v 0.738998 15.156185 -1.999878
v 3.271351 18.663013 -1.688630
v 0.929238 14.379713 0.488772
v 3.875680 16.974049 -0.954301
v 2.729134 20.353243 0.580046
v 2.051034 20.617794 3.633443
v 3.323917 15.280349 0.962751
v 4.507992 18.153633 2.562745
v 3.086661 16.029312 5.233062
v 2.679070 18.312176 6.436141
v 0.431249 14.495426 4.227844
v -0.488652 20.828041 4.065597
v -0.199045 19.705484 6.682650
v 0.058185 16.088379 7.210931
v -0.109376 18.223240 7.602138
v -0.881170 20.978912 0.427763
v -3.014737 17.359804 6.622025
v -3.166330 15.494672 4.804488
v -3.873600 19.329334 4.573895
v -1.689616 14.346193 2.420589
v -3.060497 20.494003 2.359219
v -4.814470 17.014887 2.701182
v -4.705146 18.233847 0.376939
v -3.980149 16.797800 -1.403668
v -2.863642 19.376186 -2.054911
v -3.629097 15.426644 0.581773
v -1.778918 14.978154 -1.401734
v -1.727953 17.790907 -3.788632
vt 0.817543 0.900933
vt 0.561803 0.747261
vt 0.714382 0.696661
vt 0.611779 0.592210
vt 0.580315 0.440029
vt 0.712047 0.418279
vt 0.479018 0.543579
vt 0.533458 0.279081
vt 0.705365 0.245438
vt 0.388783 0.353106
vt 0.305041 0.143060
vt 0.622384 0.123451
vt 0.421875 0.000000
vt 0.416425 0.807014
vt 0.356437 0.559284
vt 0.328125 1.000000
vt 0.224219 0.876931
vt 0.259293 0.361359
vt 0.250272 0.700632
vt 0.256296 0.551971
vt 0.149962 0.468717
vt 0.108670 0.300160
vt 0.065063 0.118673
vt 0.091398 0.642762
vt 0.028110 0.438625
vt 0.000000 0.538521
vt 0.000000 0.281787
vt 1.000000 0.625000
vt 0.976515 0.793939
vt 0.957628 0.550226
vt 0.900510 0.427455
vt 0.991820 0.407460
vt 0.864685 0.661391
vt 0.952264 0.282500
vt 0.840904 0.232052
vt 0.938333 0.118992
vt 0.798141 0.517031
vt 0.045367 0.794047
vt 0.044152 0.961278
vn 0.1754 0.9439 -0.2797
vn 0.6762 -0.0766 -0.7327
vn 0.8384 0.5137 -0.1823
vn 0.9326 -0.3578 -0.0477
vn 0.5533 -0.6705 -0.4943
vn 0.8905 -0.4372 0.1262
vn 0.3382 -0.9382 0.0741
vn 0.0395 -0.9986 0.0362
vn 0.4405 -0.8798 0.1788
vn 0.7366 0.5939 0.3235
vn 0.0878 0.9956 0.0318
vn 0.5123 -0.3270 0.7941
vn 0.3170 0.5137 0.7972
vn -0.4039 0.4645 0.7881
vn -0.2060 -0.9254 0.3182
vn -0.9094 0.0344 0.4144
vn -0.9487 0.2961 0.1107
vn -0.7357 -0.6711 0.0914
vn -0.8121 0.5834 0.0086
vn -0.9496 -0.2569 -0.1794
vn -0.4094 0.8799 -0.2411
vn -0.3750 -0.9160 -0.1427
vn -0.5873 -0.7108 -0.3871
vn -0.7503 0.1631 -0.6406
vn -0.1053 -0.9815 -0.1598
vn 0.1565 0.2657 -0.9513
vn 0.4886 0.2517 -0.8355
vn 0.3873 -0.8713 -0.3014
vn 0.5078 0.7446 -0.4334
vn -0.3276 0.8672 0.3750
vn 0.1725 0.9839 -0.0469
vn 0.9415 0.2298 -0.2463
vn 0.7263 0.6797 0.1024
vn 0.9013 -0.0648 0.4282
vn 0.2964 -0.8266 0.4785
vn 0.4070 0.7480 0.5242
vn 0.1400 0.9155 0.3772
vn 0.3859 -0.1369 0.9123
vn -0.1721 -0.8777 0.4472
vn -0.2614 -0.1938 0.9456
vn -0.4610 0.5351 0.7079
vn -0.3887 -0.6266 0.6755
vn -0.8438 -0.3378 0.4170
vn -0.1669 0.9842 0.0588
vn -0.5369 -0.8406 0.0724
vn -0.8796 -0.4497 -0.1550
vn -0.6970 0.6871 -0.2051
vn -0.8248 0.2262 -0.5183
vn -0.4680 -0.5669 -0.6780
vn -0.2234 -0.6283 -0.7452
vn -0.1746 0.8849 -0.4319
vn -0.0032 -0.9547 -0.2976
vn -0.2184 0.6447 -0.7326
vn -0.1112 -0.7221 -0.6828
usemtl Material.001
s off
f 174/202/224 163/203/224 158/204/224
f 160/205/225 162/206/225 157/207/225
f 163/203/226 166/208/226 160/205/226
f 162/206/227 166/208/227 165/209/227
f 162/206/228 165/209/228 159/210/228 157/207/228
f 166/208/229 167/211/229 165/209/229
f 165/209/230 169/212/230 161/213/230
f 178/214/231 161/213/231 169/212/231
f 167/211/232 169/212/232 165/209/232
f 166/208/233 164/215/233 168/216/233
f 164/215/234 174/217/234 170/218/234
f 168/216/235 172/219/235 167/211/235
f 168/216/236 171/220/236 173/221/236
f 171/220/237 175/222/237 173/221/237
f 169/212/238 176/223/238 178/224/238
f 177/225/239 180/226/239 175/222/239
f 177/225/240 181/227/240 180/226/240
f 176/223/241 180/226/241 184/228/241
f 177/229/242 179/230/242 181/231/242
f 181/231/243 182/232/243 180/233/243
f 179/230/244 174/202/244 183/234/244
f 184/235/245 185/236/245 178/237/245
f 182/232/246 185/236/246 184/235/246
f 182/232/247 183/234/247 186/238/247
f 185/236/248 161/213/248 178/237/248
f 186/238/249 158/204/249 157/207/249
f 158/204/250 160/205/250 157/207/250
f 161/213/251 159/210/251 165/209/251
f 158/204/252 163/203/252 160/205/252
f 177/225/253 171/220/253 170/218/253 179/239/253
f 174/202/254 164/215/254 163/203/254
f 160/205/255 166/208/255 162/206/255
f 166/208/256 163/203/256 164/215/256
f 166/208/257 168/216/257 167/211/257
f 167/211/258 172/219/258 169/212/258
f 168/216/259 164/215/259 171/220/259
f 171/220/260 164/215/260 170/218/260
f 168/216/261 173/221/261 172/219/261
f 169/212/262 172/219/262 176/223/262
f 172/219/263 173/221/263 175/222/263
f 171/220/264 177/225/264 175/222/264
f 176/223/265 172/219/265 175/222/265
f 176/223/266 175/222/266 180/226/266
f 170/218/267 174/240/267 179/239/267
f 178/224/268 176/223/268 184/228/268
f 180/233/269 182/232/269 184/235/269
f 181/231/270 179/230/270 183/234/270
f 182/232/271 181/231/271 183/234/271
f 182/232/272 186/238/272 185/236/272
f 186/238/273 157/207/273 185/236/273
f 183/234/274 174/202/274 158/204/274
f 185/236/275 159/210/275 161/213/275
f 186/238/276 183/234/276 158/204/276
f 185/236/277 157/207/277 159/210/277
